<svg xmlns="http://www.w3.org/2000/svg" xmlns:xlink="http://www.w3.org/1999/xlink" viewBox="0 0 99.42 144.65"><defs><style>.cls-1,.cls-2,.cls-4{font-size:100.79px;font-family:Roboto-Bold, Roboto;font-weight:700;}.cls-1,.cls-4{fill:gray;}.cls-1{letter-spacing:-0.03em;}.cls-3{fill:url(#linear-gradient);}.cls-5{fill:url(#linear-gradient-2);}</style><linearGradient id="linear-gradient" x1="188.89" y1="50.35" x2="219.04" y2="50.35" gradientTransform="matrix(-1, 0, 0, 1, 280.13, 0)" gradientUnits="userSpaceOnUse"><stop offset="0" stop-color="#f78b43"/><stop offset="1" stop-color="#ffba31"/></linearGradient><linearGradient id="linear-gradient-2" x1="40.81" y1="82" x2="93.9" y2="82" gradientUnits="userSpaceOnUse"><stop offset="0.18" stop-color="#33d1ab"/><stop offset="0.95" stop-color="#079385"/></linearGradient></defs><g id="Layer_2" data-name="Layer 2"><g id="Objects"><text class="cls-1" transform="translate(0 101.41) scale(0.97 1)">T</text><text class="cls-2" transform="matrix(-0.97, 0, 0, 1, 99.19, 86.23)">1</text><path class="cls-3" d="M61.09,14.47h1.48L91.25,25.1V36.67L74.84,31.4V86.23H61.09Z"/><text class="cls-4" transform="translate(35.3 117.33) scale(0.97 1)">U</text><path class="cls-5" d="M93.9,45.68V92.87q0,11.77-7.11,18.61t-19.43,6.84q-12.13,0-19.27-6.65T40.81,93.42V45.68H55.08V93q0,7,3.26,10.26t9,3.23q12,0,12.22-13.09V45.68Z"/></g></g></svg>
